<svg width="24" height="26" viewBox="0 0 24 26" fill="none" xmlns="http://www.w3.org/2000/svg">
<path d="M22.6 7V19C22.6 22.6 20.8 25 16.6 25H7C2.8 25 1 22.6 1 19V7C1 3.4 2.8 1 7 1H16.6C20.8 1 22.6 3.4 22.6 7Z" stroke="#600EE4" stroke-width="1.5" stroke-miterlimit="10" stroke-linecap="round" stroke-linejoin="round"/>
<path opacity="0.4" d="M16.0001 1V10.432C16.0001 10.96 15.3761 11.224 14.9921 10.876L12.2081 8.30803C11.9801 8.09203 11.6201 8.09203 11.3921 8.30803L8.60813 10.876C8.22413 11.224 7.6001 10.96 7.6001 10.432V1H16.0001Z" fill="#600EE4" stroke="#600EE4" stroke-width="1.5" stroke-miterlimit="10" stroke-linecap="round" stroke-linejoin="round"/>
<path opacity="0.4" d="M13.2998 15.3999H18.3998" stroke="#600EE4" stroke-width="1.5" stroke-miterlimit="10" stroke-linecap="round" stroke-linejoin="round"/>
<path opacity="0.4" d="M8.2002 20.2002H18.4002" stroke="#600EE4" stroke-width="1.5" stroke-miterlimit="10" stroke-linecap="round" stroke-linejoin="round"/>
</svg>
