<svg width="23" height="28" viewBox="0 0 23 28" fill="none" xmlns="http://www.w3.org/2000/svg">
<path d="M21.8 7.5V20.5C21.8 25.7 20.5 27 15.3 27H7.5C2.3 27 1 25.7 1 20.5V7.5C1 2.3 2.3 1 7.5 1H15.3C20.5 1 21.8 2.3 21.8 7.5Z" stroke="#600EE4" stroke-width="1.5" stroke-linecap="round" stroke-linejoin="round"/>
<path opacity="0.4" d="M14 5.54993H8.80005" stroke="#600EE4" stroke-width="1.5" stroke-linecap="round" stroke-linejoin="round"/>
<path opacity="0.4" d="M11.4001 23.2303C12.5129 23.2303 13.4151 22.3282 13.4151 21.2153C13.4151 20.1025 12.5129 19.2003 11.4001 19.2003C10.2872 19.2003 9.38507 20.1025 9.38507 21.2153C9.38507 22.3282 10.2872 23.2303 11.4001 23.2303Z" fill="#600EE4" stroke="#600EE4" stroke-width="1.5" stroke-linecap="round" stroke-linejoin="round"/>
</svg>
