<svg width="26" height="25" viewBox="0 0 26 25" fill="none" xmlns="http://www.w3.org/2000/svg">
<path opacity="0.34" d="M12.9941 15.9191C14.9813 15.9191 16.5923 14.3081 16.5923 12.3209C16.5923 10.3336 14.9813 8.72266 12.9941 8.72266C11.0068 8.72266 9.39587 10.3336 9.39587 12.3209C9.39587 14.3081 11.0068 15.9191 12.9941 15.9191Z" fill="#600EE4" stroke="#600EE4" stroke-width="1.5" stroke-miterlimit="10" stroke-linecap="round" stroke-linejoin="round"/>
<path d="M1 13.3765V11.2655C1 10.0182 2.01949 8.98669 3.27886 8.98669C5.44978 8.98669 6.33733 7.45146 5.24588 5.5684C4.62219 4.48894 4.994 3.08564 6.08546 2.46195L8.16042 1.27454C9.10795 0.710826 10.3313 1.04666 10.8951 1.99418L11.027 2.22207C12.1064 4.10513 13.8816 4.10513 14.973 2.22207L15.1049 1.99418C15.6687 1.04666 16.8921 0.710826 17.8396 1.27454L19.9145 2.46195C21.006 3.08564 21.3778 4.48894 20.7541 5.5684C19.6627 7.45146 20.5502 8.98669 22.7211 8.98669C23.9685 8.98669 25 10.0062 25 11.2655V13.3765C25 14.6239 23.9805 15.6554 22.7211 15.6554C20.5502 15.6554 19.6627 17.1906 20.7541 19.0736C21.3778 20.1651 21.006 21.5564 19.9145 22.1801L17.8396 23.3675C16.8921 23.9312 15.6687 23.5954 15.1049 22.6479L14.973 22.42C13.8936 20.5369 12.1184 20.5369 11.027 22.42L10.8951 22.6479C10.3313 23.5954 9.10795 23.9312 8.16042 23.3675L6.08546 22.1801C4.994 21.5564 4.62219 20.1531 5.24588 19.0736C6.33733 17.1906 5.44978 15.6554 3.27886 15.6554C2.01949 15.6554 1 14.6239 1 13.3765Z" stroke="#600EE4" stroke-width="1.5" stroke-miterlimit="10" stroke-linecap="round" stroke-linejoin="round"/>
</svg>
