<svg width="17" height="15" viewBox="0 0 17 15" fill="none" xmlns="http://www.w3.org/2000/svg">
<path d="M1.08537 0.284536C0.752908 0.166789 0.393556 0.357695 0.282735 0.710937C0.171914 1.06418 0.35159 1.44599 0.684053 1.56374L0.908181 1.64312C1.48046 1.8458 1.85881 1.98087 2.13754 2.11864C2.40148 2.2491 2.51559 2.35409 2.58871 2.46188C2.66182 2.56966 2.71948 2.71788 2.7525 3.02518C2.78737 3.3497 2.78833 3.77379 2.78833 4.41472L2.78833 6.81652C2.78831 8.04589 2.7883 9.03679 2.88691 9.81614C2.9893 10.6253 3.20834 11.3065 3.71759 11.8476C4.22684 12.3887 4.86805 12.6214 5.62959 12.7302C6.36308 12.835 7.2957 12.835 8.45275 12.835H14.4216C14.772 12.835 15.0561 12.5331 15.0561 12.1608C15.0561 11.7884 14.772 11.4866 14.4216 11.4866H8.49918C7.28475 11.4866 6.43775 11.4851 5.79869 11.3939C5.17787 11.3052 4.84912 11.143 4.61497 10.8942C4.41599 10.6828 4.27585 10.3988 4.18702 9.91345H12.7481C13.5598 9.91345 13.9657 9.91345 14.2835 9.69075C14.6014 9.46805 14.7613 9.07169 15.081 8.27897L15.4436 7.38004C16.1285 5.68212 16.4709 4.83316 16.0948 4.22705C15.7186 3.62093 14.8493 3.62093 13.1107 3.62093H4.05322C4.04823 3.34434 4.0373 3.09479 4.01339 2.87223C3.96656 2.43641 3.86452 2.03651 3.61824 1.67345C3.37195 1.3104 3.04716 1.08109 2.67284 0.896065C2.32068 0.722002 1.87284 0.563411 1.3429 0.375744L1.08537 0.284536Z" fill="white"/>
<path d="M5.53783 12.2831C6.23872 12.2831 6.80691 12.8868 6.80691 13.6315C6.80691 14.3762 6.23872 14.9799 5.53783 14.9799C4.83694 14.9799 4.26875 14.3762 4.26875 13.6315C4.26875 12.8868 4.83694 12.2831 5.53783 12.2831Z" fill="white"/>
<path d="M13.1523 12.2832C13.8532 12.2832 14.4214 12.8869 14.4214 13.6316C14.4214 14.3763 13.8532 14.98 13.1523 14.98C12.4514 14.98 11.8832 14.3763 11.8832 13.6316C11.8832 12.8869 12.4514 12.2832 13.1523 12.2832Z" fill="white"/>
</svg>
