<svg width="120" height="24" viewBox="0 0 120 24" fill="none" xmlns="http://www.w3.org/2000/svg">
<path d="M15.3213 2.5641C13.8303 2.30471 12.296 2.48395 10.905 3.08003C8.84144 4.35484 7.12768 6.12323 5.91822 8.22571C4.70877 10.3282 4.04165 12.6987 3.97702 15.1233C3.93769 15.264 3.57911 15.1037 3.508 15.0613C2.95363 14.0392 2.61786 12.913 2.52201 11.7542C2.42616 10.5954 2.57233 9.42936 2.95123 8.33007C3.10252 8.07589 2.60324 7.76119 2.51397 7.85196C1.96889 8.411 1.48921 9.03026 1.08421 9.6978C-0.0414783 11.7737 -0.302703 14.21 0.35727 16.4774C1.01724 18.7448 2.54512 20.6603 4.60906 21.8078C6.67301 22.9554 9.10635 23.2423 11.3806 22.6063C13.6549 21.9703 15.5864 20.4628 16.7556 18.411C19.5425 13.4182 16.9554 3.47038 15.3213 2.55805V2.5641Z" fill="#82B541"/>
<path d="M30.8067 4.96216C29.3418 5.02191 27.9135 5.43715 26.645 6.17206C25.3764 6.90697 24.3056 7.93947 23.5251 9.1805C22.7446 10.4215 22.2778 11.8338 22.1649 13.2955C22.0519 14.7573 22.2963 16.2245 22.8769 17.5707C23.4575 18.9169 24.357 20.1016 25.4976 21.0226C26.6382 21.9437 27.9858 22.5734 29.4241 22.8574C30.8624 23.1415 32.3482 23.0714 33.7533 22.6531C35.1584 22.2348 36.4407 21.481 37.4895 20.4566C37.8298 20.1182 38.0298 19.6637 38.0493 19.1842C38.0537 18.9859 38.0172 18.7888 37.9422 18.6052C37.8673 18.4216 37.7555 18.2553 37.6136 18.1167C37.4717 17.9781 37.3029 17.8702 37.1176 17.7995C36.9323 17.7289 36.7345 17.697 36.5363 17.706C36.3033 17.7118 36.0738 17.7644 35.8615 17.8605C35.6492 17.9567 35.4583 18.0945 35.3002 18.2658C34.7407 18.8423 34.0702 19.2993 33.329 19.6093C32.5879 19.9193 31.7915 20.0758 30.9882 20.0692C29.6153 20.0939 28.2856 19.5891 27.2751 18.6594C26.2645 17.7297 25.6508 16.4466 25.5612 15.0764H37.1461C38.4064 15.0764 39.0176 14.4879 39.0176 13.276C39.0252 12.9009 39.0014 12.5259 38.9465 12.1549C38.8041 10.1284 37.8716 8.23893 36.3497 6.89334C34.8278 5.54775 32.8383 4.8537 30.8097 4.96064L30.8067 4.96216ZM30.8067 7.77478C31.4265 7.73882 32.0469 7.83366 32.6277 8.05316C33.2084 8.27266 33.7365 8.61189 34.1775 9.04882C34.6186 9.48575 34.9628 10.0106 35.1877 10.5892C35.4127 11.1679 35.5134 11.7874 35.4833 12.4075H25.5627C25.6987 11.1193 26.3128 9.92885 27.2836 9.07119C28.2544 8.21353 29.5115 7.75096 30.8067 7.77478Z" fill="white"/>
<path d="M50.0775 4.96215C48.9525 4.9518 47.8453 5.24319 46.8711 5.80597C45.8969 6.36876 45.0915 7.18235 44.5385 8.1621V7.01224C44.565 6.77648 44.5415 6.53776 44.4694 6.31171C44.3973 6.08566 44.2784 5.87737 44.1203 5.70046C43.9622 5.52356 43.7685 5.38202 43.552 5.28512C43.3354 5.18822 43.1009 5.13813 42.8636 5.13813C42.6264 5.13813 42.3918 5.18822 42.1752 5.28512C41.9586 5.38202 41.765 5.52356 41.6069 5.70046C41.4488 5.87737 41.3298 6.08566 41.2577 6.31171C41.1857 6.53776 41.1622 6.77648 41.1888 7.01224V20.9029C41.1648 21.1491 41.1926 21.3975 41.2704 21.6323C41.3482 21.8671 41.4743 22.083 41.6405 22.2661C41.8067 22.4493 42.0094 22.5956 42.2356 22.6958C42.4617 22.7959 42.7063 22.8477 42.9537 22.8477C43.201 22.8477 43.4455 22.7959 43.6716 22.6958C43.8978 22.5956 44.1005 22.4493 44.2667 22.2661C44.4329 22.083 44.559 21.8671 44.6368 21.6323C44.7146 21.3975 44.7424 21.1491 44.7185 20.9029V13.4575C44.7185 10.2182 46.5538 7.95482 49.1833 7.95482C51.7297 7.95482 52.9658 9.6191 52.9658 13.0626V20.9029C52.9407 21.1496 52.9677 21.3988 53.0449 21.6344C53.1222 21.8701 53.248 22.0869 53.4142 22.2709C53.5805 22.4549 53.7835 22.602 54.0101 22.7026C54.2367 22.8033 54.4819 22.8553 54.7298 22.8553C54.9778 22.8553 55.223 22.8033 55.4497 22.7026C55.6763 22.602 55.8793 22.4549 56.0456 22.2709C56.2118 22.0869 56.3376 21.8701 56.4149 21.6344C56.4921 21.3988 56.5191 21.1496 56.494 20.9029V11.9536C56.494 8.57363 54.8085 4.96215 50.0759 4.96215H50.0775Z" fill="white"/>
<path d="M72.4651 5.14071C72.057 5.14835 71.6629 5.29103 71.3445 5.54644C71.0262 5.80186 70.8014 6.15559 70.7054 6.55232L65.8761 18.6894L61.0845 6.54778C60.9826 6.14774 60.7513 5.79254 60.4269 5.5373C60.1024 5.28206 59.7028 5.14105 59.29 5.13618C58.8318 5.12766 58.389 5.30102 58.0583 5.61833C57.7277 5.93564 57.5362 6.37104 57.5259 6.82919C57.5278 7.17395 57.6031 7.51435 57.7468 7.82776L63.2949 20.9301C63.455 21.4815 63.7897 21.9659 64.2488 22.3106C64.7078 22.6553 65.2664 22.8417 65.8405 22.8417C66.4146 22.8417 66.9731 22.6553 67.4322 22.3106C67.8912 21.9659 68.226 21.4815 68.3861 20.9301L73.978 7.75967C74.1129 7.45611 74.1879 7.1294 74.1989 6.79743C74.1991 6.57342 74.154 6.35168 74.0664 6.14551C73.9788 5.93933 73.8506 5.75296 73.6893 5.59755C73.5279 5.44215 73.3369 5.32092 73.1275 5.24112C72.9182 5.16132 72.695 5.12459 72.4712 5.13314L72.4651 5.14071Z" fill="white"/>
<path d="M82.72 4.96215C80.6105 4.91709 78.5401 5.53576 76.8011 6.73082C76.5607 6.87488 76.3619 7.07889 76.224 7.32289C76.0861 7.56688 76.0139 7.8425 76.0145 8.12277C76.0102 8.30558 76.0425 8.48739 76.1095 8.65755C76.1764 8.82771 76.2767 8.98278 76.4043 9.1137C76.532 9.24461 76.6845 9.34871 76.8529 9.41991C77.0214 9.49111 77.2024 9.52797 77.3852 9.52832C77.7637 9.51227 78.1285 9.38256 78.4321 9.15613C79.5875 8.32261 80.9716 7.86512 82.3961 7.84588C85.0045 7.84588 86.5039 9.17277 86.5039 11.4876V11.8704C80.6472 11.8704 74.689 12.5845 74.689 17.6802C74.689 21.3477 77.8224 22.9893 80.9286 22.9893C82.0436 23.0402 83.1532 22.8066 84.1532 22.3106C85.1531 21.8147 86.0105 21.0725 86.6446 20.154V21.0466C86.6187 21.2778 86.6427 21.5118 86.7153 21.7328C86.7878 21.9539 86.9071 22.1567 87.065 22.3275C87.2229 22.4983 87.4157 22.6331 87.6303 22.7228C87.845 22.8124 88.0764 22.8548 88.3089 22.8471C88.5361 22.8479 88.7609 22.8002 88.9681 22.707C89.1754 22.6138 89.3603 22.4774 89.5105 22.3069C89.6606 22.1363 89.7726 21.9357 89.8388 21.7183C89.9051 21.5009 89.9241 21.2719 89.8945 21.0466V11.6979C89.8945 7.47672 87.2135 4.95761 82.7245 4.95761L82.72 4.96215ZM85.7626 14.4697H86.5054V15.2822C86.5553 15.9316 86.4655 16.5841 86.2417 17.1958C86.018 17.8075 85.6657 18.364 85.2085 18.8279C84.7513 19.2918 84.2 19.6523 83.5916 19.885C82.9833 20.1176 82.3321 20.2171 81.682 20.1767C80.8862 20.1767 78.2915 19.9921 78.2915 17.6046C78.293 14.7935 82.555 14.4697 85.7626 14.4697Z" fill="white"/>
<path d="M99.083 8.34669C99.2874 8.37522 99.4955 8.35902 99.693 8.29922C99.8905 8.23941 100.073 8.13743 100.227 8.00032C100.381 7.86321 100.504 7.69424 100.586 7.5051C100.669 7.31595 100.709 7.11114 100.705 6.90483C100.712 6.69616 100.674 6.48838 100.593 6.2959C100.512 6.10343 100.39 5.93088 100.236 5.79023C100.082 5.64959 99.8986 5.54421 99.6995 5.48143C99.5004 5.41864 99.2901 5.39995 99.083 5.42665H95.9056V2.21611C95.9327 1.97067 95.9077 1.72228 95.8323 1.48715C95.7569 1.25202 95.6328 1.03542 95.4681 0.851495C95.3033 0.667569 95.1016 0.520445 94.8761 0.419721C94.6507 0.318998 94.4066 0.266937 94.1597 0.266937C93.9128 0.266937 93.6686 0.318998 93.4431 0.419721C93.2177 0.520445 93.0159 0.667569 92.8512 0.851495C92.6864 1.03542 92.5624 1.25202 92.487 1.48715C92.4116 1.72228 92.3866 1.97067 92.4137 2.21611V17.4669C92.4137 20.9861 94.149 22.8471 97.4352 22.8471C98.1946 22.8645 98.9498 22.7276 99.6548 22.4446C99.9342 22.3293 100.175 22.1363 100.348 21.8886C100.521 21.6408 100.62 21.3487 100.632 21.0466C100.638 20.8601 100.606 20.6744 100.538 20.5008C100.47 20.3272 100.366 20.1695 100.234 20.0376C100.102 19.9057 99.9445 19.8023 99.771 19.7338C99.5974 19.6653 99.4117 19.6332 99.2252 19.6396C99.012 19.649 98.8009 19.6862 98.5973 19.75C98.3592 19.8164 98.1135 19.8515 97.8664 19.8544C96.529 19.8544 95.9073 18.9814 95.9073 17.1084V8.34518H99.0845L99.083 8.34669Z" fill="white"/>
<path d="M110.751 4.96214C109.545 4.90645 108.34 5.09935 107.212 5.52884C106.084 5.95834 105.056 6.61526 104.192 7.4588C103.329 8.30234 102.647 9.31447 102.191 10.4323C101.735 11.5502 101.514 12.7498 101.541 13.9568C101.522 15.163 101.747 16.3607 102.201 17.4784C102.654 18.5961 103.329 19.6111 104.183 20.4626C105.953 22.1424 108.312 23.0601 110.752 23.018C111.962 23.0572 113.167 22.8507 114.295 22.4111C115.423 21.9715 116.45 21.3078 117.314 20.4602C118.178 19.6126 118.862 18.5987 119.323 17.4796C119.784 16.3605 120.014 15.1596 119.998 13.9492C120.023 12.7399 119.799 11.5383 119.339 10.4192C118.88 9.30018 118.196 8.28746 117.329 7.44398C116.462 6.6005 115.43 5.94426 114.299 5.51602C113.168 5.08778 111.961 4.89667 110.752 4.95457L110.751 4.96214ZM110.751 20.0329C109.979 20.0217 109.218 19.853 108.513 19.5372C107.809 19.2214 107.176 18.765 106.654 18.1962C106.133 17.6273 105.732 16.9579 105.478 16.2289C105.224 15.4999 105.122 14.7268 105.177 13.9568C105.27 12.8738 105.676 11.8413 106.346 10.9852C107.016 10.1292 107.92 9.48661 108.949 9.13604C109.978 8.78546 111.087 8.742 112.14 9.01097C113.193 9.27993 114.145 9.84969 114.88 10.6507C115.615 11.4517 116.1 12.4493 116.278 13.5217C116.455 14.5941 116.316 15.6949 115.878 16.6898C115.441 17.6847 114.723 18.5306 113.812 19.1243C112.902 19.7179 111.838 20.0336 110.751 20.0329Z" fill="white"/>
</svg>
